<?xml version="1.0" encoding="UTF-8"?>
<svg version="1.1" xmlns="http://www.w3.org/2000/svg" width="100" height="100">
<path d="M0 0 C3.73161366 0.5201965 6.41001879 2.29182502 9.49609375 4.3203125 C10.08519531 4.69349609 10.67429687 5.06667969 11.28125 5.45117188 C15.51581101 8.15252976 15.51581101 8.15252976 16.74609375 9.3828125 C16.86887695 10.9615918 16.86887695 10.9615918 16.99414062 12.57226562 C17.87320996 17.02697801 19.67270188 19.24437646 22.77734375 22.3515625 C23.28728882 22.87673462 23.79723389 23.40190674 24.32263184 23.94299316 C25.40101893 25.0428938 26.4873503 26.13505572 27.58105469 27.21972656 C29.24263787 28.87936068 30.85696422 30.57705384 32.47265625 32.28125 C37.65014999 37.92509511 37.65014999 37.92509511 44.44946289 40.82226562 C46.849305 40.58071232 46.849305 40.58071232 48.97875977 39.859375 C49.56197998 39.70210937 50.1452002 39.54484375 50.74609375 39.3828125 C53.18359375 40.8828125 53.18359375 40.8828125 54.74609375 43.3828125 C54.99359375 44.5584375 55.24109375 45.7340625 55.49609375 46.9453125 C55.90859375 48.0796875 56.32109375 49.2140625 56.74609375 50.3828125 C58.69036805 51.08983312 60.6366466 51.7921393 62.5954895 52.45773315 C66.2482057 54.02894381 68.67763134 56.67798151 71.3984375 59.51171875 C72.27684044 60.39717628 72.27684044 60.39717628 73.17298889 61.30052185 C75.02194236 63.17065356 76.85246765 65.05774015 78.68359375 66.9453125 C79.93834545 68.21658902 81.19419546 69.4867825 82.45117188 70.75585938 C93.15267814 81.61598631 93.15267814 81.61598631 93.10546875 90.609375 C92.54898629 94.90396787 90.91437488 96.51627243 87.74609375 99.3828125 C85.27003702 100.62084086 83.38701563 100.72872214 80.62109375 100.8828125 C79.25597656 100.99109375 79.25597656 100.99109375 77.86328125 101.1015625 C72.98022284 99.97564427 70.27336384 96.81733906 66.74609375 93.3828125 C65.87114258 92.55475098 64.99619141 91.72668945 64.09472656 90.87353516 C61.67713464 88.56787649 59.28472191 86.24215144 56.90795898 83.89477539 C55.92137703 82.92485702 54.92944651 81.96035057 53.93237305 81.0012207 C48.2356781 75.51879228 44.11858262 71.03827844 41.74609375 63.3828125 C38.30078255 61.98165682 38.30078255 61.98165682 34.74609375 61.3828125 C32.80859375 60.1328125 32.80859375 60.1328125 31.74609375 58.3828125 C31.55859375 55.4453125 31.55859375 55.4453125 31.74609375 52.3828125 C31.74609375 46.40875257 27.90612268 43.94205071 23.91210938 39.90429688 C23.38141846 39.37795654 22.85072754 38.85161621 22.30395508 38.30932617 C20.69594111 36.70761149 19.11634821 35.08120278 17.53710938 33.45117188 C16.51334432 32.42285822 15.48800162 31.39611236 14.4609375 30.37109375 C13.534021 29.43821533 12.60710449 28.50533691 11.65209961 27.54418945 C8.25237028 25.01559971 5.90401486 24.77348338 1.74609375 24.3828125 C-0.14453125 22.4921875 -0.14453125 22.4921875 -1.50390625 20.1328125 C-1.98601563 19.318125 -2.468125 18.5034375 -2.96484375 17.6640625 C-3.39023437 16.91125 -3.815625 16.1584375 -4.25390625 15.3828125 C-5.18203125 14.0215625 -5.18203125 14.0215625 -6.12890625 12.6328125 C-7.51548989 9.85964522 -7.86504591 8.43851082 -7.25390625 5.3828125 C-3.534137 0.60025204 -3.534137 0.60025204 0 0 Z M-0.25390625 5.3828125 C-1.24390625 6.8678125 -1.24390625 6.8678125 -2.25390625 8.3828125 C-1.32743089 10.03487697 -0.38734051 11.6793122 0.55859375 13.3203125 C1.34169922 14.69509766 1.34169922 14.69509766 2.140625 16.09765625 C4.0801343 18.85827167 5.53307292 19.13788816 8.75802612 19.78904724 C12.1844677 20.81240376 14.33442771 23.651327 16.75390625 26.16796875 C17.32060028 26.74365097 17.88729431 27.31933319 18.47116089 27.91246033 C20.27844393 29.74974901 22.07548939 31.5966136 23.87109375 33.4453125 C25.67470681 35.29666685 27.48045084 37.14572749 29.29244995 38.98887634 C30.41941911 40.13568969 31.54141754 41.2874124 32.6579895 42.4443512 C33.98308217 43.79512212 35.36023311 45.09446359 36.74609375 46.3828125 C37.40609375 46.3828125 38.06609375 46.3828125 38.74609375 46.3828125 C37.14076464 42.29547228 34.19610469 39.66233781 31.08203125 36.69921875 C29.9487976 35.59613562 28.81599807 34.49260636 27.68359375 33.38867188 C25.89991208 31.66085331 24.11263743 29.93723047 22.31738281 28.22143555 C20.58191811 26.55847998 18.8624668 24.88025087 17.14453125 23.19921875 C16.60396088 22.69072891 16.0633905 22.18223907 15.50643921 21.65834045 C11.79552371 17.99874797 11.79552371 17.99874797 11.52514648 14.62963867 C11.59805908 13.88818604 11.67097168 13.1467334 11.74609375 12.3828125 C9.90221433 10.51061556 9.90221433 10.51061556 7.43359375 9.1328125 C6.63308594 8.63265625 5.83257812 8.1325 5.0078125 7.6171875 C2.69086517 6.26612395 2.69086517 6.26612395 -0.25390625 5.3828125 Z M44.36328125 46.5703125 C43.00589844 47.9625 43.00589844 47.9625 41.62109375 49.3828125 C40.71101563 50.3109375 39.8009375 51.2390625 38.86328125 52.1953125 C38.16460937 52.9171875 37.4659375 53.6390625 36.74609375 54.3828125 C37.07609375 55.3728125 37.40609375 56.3628125 37.74609375 57.3828125 C40.07281229 58.07221059 42.40676969 58.73748172 44.74609375 59.3828125 C47.52677011 61.20463495 47.72942941 62.30890563 48.47509766 65.6159668 C49.92843775 69.92322462 52.07362049 72.38806787 55.26953125 75.46484375 C55.81211578 76.00509689 56.35470032 76.54535004 56.91372681 77.10197449 C58.05609247 78.23464796 59.20444154 79.36131557 60.35839844 80.48217773 C62.12119611 82.19541199 63.86447016 83.92675382 65.60546875 85.66210938 C66.72156678 86.76412532 67.83871915 87.86507469 68.95703125 88.96484375 C69.47695648 89.47940628 69.99688171 89.99396881 70.53256226 90.52412415 C73.08416868 92.99311262 75.37775669 95.15600457 78.74609375 96.3828125 C81.89892767 96.2251708 83.47178838 95.57556763 86.05859375 93.7578125 C87.96627931 91.40654976 87.96627931 91.40654976 88.43359375 88.1328125 C87.72563515 84.27122011 87.30226187 83.51402246 84.79296875 80.76171875 C84.15834717 80.0641748 83.52372559 79.36663086 82.86987305 78.64794922 C82.16902588 77.9004541 81.46817871 77.15295898 80.74609375 76.3828125 C79.64358276 75.20549561 79.64358276 75.20549561 78.51879883 74.00439453 C76.14022121 71.50102192 73.72910429 69.03311949 71.30859375 66.5703125 C70.50099609 65.72533203 69.69339844 64.88035156 68.86132812 64.00976562 C63.99622833 59.07410032 60.34493537 56.42924325 53.74609375 54.3828125 C50.34818551 51.62537402 49.7721198 48.56584179 48.74609375 44.3828125 C46.45253653 44.15738874 46.45253653 44.15738874 44.36328125 46.5703125 Z " fill="#FFFFFF" transform="translate(7.25390625,-0.3828125)"/>
<path d="M0 0 C0.83984375 1.640625 0.83984375 1.640625 1 4 C-0.75836408 6.1302685 -2.42424794 7.8949842 -4.4375 9.75 C-4.96666016 10.25660156 -5.49582031 10.76320313 -6.04101562 11.28515625 C-7.34977101 12.53495869 -8.67351959 13.76902618 -10 15 C-8.01929563 17.35043586 -6.01418678 19.67822804 -4 22 C-3.29875 22.825 -2.5975 23.65 -1.875 24.5 C-0.15995853 26.21703168 -0.15995853 26.21703168 1.8359375 25.8828125 C5.69766291 24.30745159 8.04121677 20.88563203 10.78125 17.8359375 C11.87953125 16.92714844 11.87953125 16.92714844 13 16 C15.28125 16.2265625 15.28125 16.2265625 17 17 C17.61922604 27.01082094 16.4714697 34.8845844 10.1875 42.9375 C7.14507104 46.15486862 4.33057889 47.82560573 0 49 C-3.81155594 48.97415894 -7.42442517 48.43130261 -11.09765625 47.42578125 C-13.6069364 46.86415592 -15.53295953 47.38323988 -18 48 C-18 44 -18 44 -16 41.75 C-15.34 41.1725 -14.68 40.595 -14 40 C-13.02160156 40.34224609 -13.02160156 40.34224609 -12.0234375 40.69140625 C-5.53238425 42.82636919 -1.54841774 43.18280591 5 41 C6.12848868 39.20292338 6.12848868 39.20292338 7 37 C7.52980469 35.83210938 7.52980469 35.83210938 8.0703125 34.640625 C8.41835937 33.85171875 8.76640625 33.0628125 9.125 32.25 C9.47820312 31.45078125 9.83140625 30.6515625 10.1953125 29.828125 C10.59363281 28.92320313 10.59363281 28.92320313 11 28 C10.67 27.67 10.34 27.34 10 27 C9.278125 27.804375 8.55625 28.60875 7.8125 29.4375 C4.93957727 32.05505182 3.8326877 33 0 33 C-3.99213416 30.94364901 -7.0443803 28.31153956 -10.25 25.1875 C-11.12140625 24.35605469 -11.9928125 23.52460938 -12.890625 22.66796875 C-15.31670711 19.59942416 -16.01551042 17.90345669 -16 14 C-14.56640625 11.6640625 -14.56640625 11.6640625 -12.5625 9.625 C-11.90378906 8.93664063 -11.24507812 8.24828125 -10.56640625 7.5390625 C-10.04949219 7.03117188 -9.53257813 6.52328125 -9 6 C-15.25978856 7.01749213 -20.80136682 9.60736978 -25.125 14.3125 C-26.70831318 19.17553333 -25.3064666 23.81499583 -24.0625 28.625 C-23.99293597 32.3814578 -24.25232751 32.82489032 -26.6875 35.4375 C-29.44313908 38.0563828 -29.87502136 38 -34 38 C-33.5883235 35.03592917 -33.30780959 33.35341101 -31.3125 31.0625 C-30.6628125 30.0415625 -30.6628125 30.0415625 -30 29 C-30.79950593 26.10007201 -30.79950593 26.10007201 -32 23 C-32.47072704 17.72785716 -31.92582459 14.43592761 -29 10 C-20.69878135 0.97889247 -11.90526075 -0.66242564 0 0 Z " fill="#FFFFFF" transform="translate(83,0)"/>
<path d="M0 0 C2.2578125 0.2265625 2.2578125 0.2265625 4 1 C3.29006539 6.25106806 -0.47723658 9.30771753 -4.10546875 12.86328125 C-7.97299523 15.71825694 -10.75809014 15.86681297 -15.44921875 15.88671875 C-19.62486435 16.0721609 -21.70296326 17.45853418 -25 20 C-28.36967157 24.67406056 -28.87427448 29.41435747 -28 35 C-26.65996722 38.73912373 -24.77244735 41.39017315 -21.625 43.875 C-15.83967895 46.35442331 -11.87636311 46.1541175 -6.0546875 44.02734375 C-2.45939166 42.22969583 -0.74835155 39.4967031 1 36 C1.02596065 34.12506398 1.0458857 32.25004213 1.0625 30.375 C1.50806036 24.21141498 3.43145047 21.44789188 7.89453125 17.328125 C10 16 10 16 14 16 C13.69239911 19.58867701 13.30779975 20.73837021 10.5 23.125 C7.22660174 26.88940799 7.47339201 29.50849877 7.2265625 34.34765625 C6.71070456 40.38675184 3.45612929 44.1656562 -1 48 C-6.67141703 52.11177735 -13.28585132 51.74601652 -20 51 C-26.04017992 49.12106881 -29.91448821 44.42462988 -33.11328125 39.171875 C-35.17499772 34.12203201 -34.80432755 27.79229621 -33.3125 22.61328125 C-30.76560851 17.04195611 -27.09943386 13.7219077 -21.75 10.75 C-19 10 -19 10 -16.78125 9.98046875 C-12.44257071 9.90681833 -9.91186539 9.76272852 -6.4921875 6.90234375 C-4.95044529 5.25629225 -3.4521554 3.56808304 -2.0078125 1.8359375 C-1.34523437 1.23007812 -0.68265625 0.62421875 0 0 Z " fill="#FFFFFF" transform="translate(34,49)"/>
<path d="M0 0 C2.8734936 1.96607457 5.03980507 4.12166779 7 7 C7.94702188 12.30332252 6.78613812 16.41635342 4 21 C0.6875 22.4375 0.6875 22.4375 -3 23 C-3.99 23.185625 -4.98 23.37125 -6 23.5625 C-10.00859108 22.81088917 -11.97044782 21.1708648 -14.7109375 18.20703125 C-16.6959468 14.80845471 -16.2740158 12.11650517 -15.66015625 8.33203125 C-14.99299113 5.97524084 -14.32098306 4.06545461 -13 2 C-8.68853699 0.341745 -4.57077102 -0.85701957 0 0 Z M-10 7 C-11.23293337 11.93684354 -11.23293337 11.93684354 -9.5 16.5 C-6.03377718 18.57973369 -3.8399099 17.88613305 0 17 C1.62320977 13.58270001 1.62320977 13.58270001 1.8125 9.875 C0.85446369 7.66414697 -0.09063745 6.46874042 -2 5 C-5.20395416 5 -7.09399739 5.74335022 -10 7 Z " fill="#FFFFFF" transform="translate(25,68)"/>
<path d="M0 0 C5.80891746 4.81867247 11.13065552 10.01256408 16.4375 15.375 C17.26443359 16.20644531 18.09136719 17.03789063 18.94335938 17.89453125 C20.96455531 19.9274104 22.98336335 21.96259963 25 24 C23.68 25.32 22.36 26.64 21 28 C13.08 20.08 5.16 12.16 -3 4 C-2.01 2.68 -1.02 1.36 0 0 Z " fill="#FFFFFF" transform="translate(63,60)"/>
</svg>
